# xmcd CD database file
#
# Track frame offsets:
#	150
#	16567
#	34935
#	50237
#	65517
#	82845
#	99805
#	116207
#	127347
#	140240
#	154357
#
# Disc length: 2452 seconds
#
# Revision: 8
# Processed by: cddbd v1.5.2PL0 Copyright (c) Steve Scherf et al.
# Submitted via: CDex 1.50
#
DISCID=9a09920b
DTITLE=Righteous Brothers - Reunion
DYEAR=1990
DGENRE=Blues
TTITLE0=Unchained Melody
TTITLE1=Just Once In My Life
TTITLE2=Rock and Roll Heaven
TTITLE3=(Youre My) Soul And Inspiration
TTITLE4=You've Lost That Lovin' Feelin'
TTITLE5=Hung On You
TTITLE6=Try To Find Another Woman
TTITLE7=Little Latin Lupe Lu
TTITLE8=Ebbtide
TTITLE9=My Babe
TTITLE10=Unchained Melody (Extended Version)
EXTD=YEAR: 1990
EXTT0=
EXTT1=
EXTT2=
EXTT3=
EXTT4=
EXTT5=
EXTT6=
EXTT7=
EXTT8=
EXTT9=
EXTT10=
PLAYORDER=
